<?xml version="1.0" encoding="UTF-8" standalone="no" ?>
<!DOCTYPE svg PUBLIC "-//W3C//DTD SVG 1.1//EN" "http://www.w3.org/Graphics/SVG/1.1/DTD/svg11.dtd">
<svg xmlns="http://www.w3.org/2000/svg" xmlns:xlink="http://www.w3.org/1999/xlink" version="1.1" width="344" height="194" viewBox="0 0 344 194" xml:space="preserve">
<desc>Created with Fabric.js 4.2.0</desc>
<defs>
</defs>
<g transform="matrix(1 0 0 1 172 97)" id="84c009e3-5d5f-427f-ba65-a1db112f49d6"  >
<rect style="stroke: none; stroke-width: 1; stroke-dasharray: none; stroke-linecap: butt; stroke-dashoffset: 0; stroke-linejoin: miter; stroke-miterlimit: 4; fill: rgb(255,255,255); fill-rule: nonzero; opacity: 1; visibility: hidden;" vector-effect="non-scaling-stroke"  x="-172" y="-97" rx="0" ry="0" width="344" height="194" />
</g>
<g transform="matrix(0 0 0 0 0 0)" id="2f333666-05a9-48f5-ac4a-1d69045fb383"  >
</g>
<g transform="matrix(4.96 0 0 4.96 130.61 56.97)"  >
<path style="stroke: none; stroke-width: 0.35; stroke-dasharray: none; stroke-linecap: butt; stroke-dashoffset: 0; stroke-linejoin: miter; stroke-miterlimit: 4; fill: rgb(10,112,163); fill-rule: nonzero; opacity: 1;" vector-effect="non-scaling-stroke"  transform=" translate(264.52, 12.21)" d="M -266.3985 -18.985375 L -262.6461 -18.985375 L -262.6461 -5.439262200000002 L -266.3985 -5.439262200000002 z M -266.3985 -18.985375" stroke-linecap="round" />
</g>
<g transform="matrix(4.96 0 0 4.96 175.29 56.97)"  >
<path style="stroke: none; stroke-width: 0.35; stroke-dasharray: none; stroke-linecap: butt; stroke-dashoffset: 0; stroke-linejoin: miter; stroke-miterlimit: 4; fill: rgb(10,112,163); fill-rule: nonzero; opacity: 1;" vector-effect="non-scaling-stroke"  transform=" translate(255.52, 12.21)" d="M -260.67688 -5.4392622 L -260.67688 -18.985375 L -250.35813 -18.985375 L -250.35813 -16.360215 L -256.92587 -16.360215 L -256.92587 -13.564175 L -250.88454999999996 -13.564175 L -250.88454999999996 -10.937632 L -256.92587 -10.937632 L -256.92587 -8.0671815 L -250.35813 -8.0671815 L -250.35813 -5.4392622 z M -260.67688 -5.4392622" stroke-linecap="round" />
</g>
<g transform="matrix(4.96 0 0 4.96 236.9 56.97)"  >
<path style="stroke: none; stroke-width: 0.35; stroke-dasharray: none; stroke-linecap: butt; stroke-dashoffset: 0; stroke-linejoin: miter; stroke-miterlimit: 4; fill: rgb(10,112,163); fill-rule: nonzero; opacity: 1;" vector-effect="non-scaling-stroke"  transform=" translate(243.1, 12.21)" d="M -248.25663 -5.4392622 L -248.25663 -18.985375 L -237.94063 -18.985375 L -237.94063 -16.360215 L -244.50423 -16.360215 L -244.50423 -13.564175 L -238.46567000000002 -13.564175 L -238.46567000000002 -10.937632 L -244.50423 -10.937632 L -244.50423 -8.0671815 L -237.94063 -8.0671815 L -237.94063 -5.4392622 z M -248.25663 -5.4392622" stroke-linecap="round" />
</g>
<g transform="matrix(4.96 0 0 4.96 298.51 56.97)"  >
<path style="stroke: none; stroke-width: 0.35; stroke-dasharray: none; stroke-linecap: butt; stroke-dashoffset: 0; stroke-linejoin: miter; stroke-miterlimit: 4; fill: rgb(10,112,163); fill-rule: nonzero; opacity: 1;" vector-effect="non-scaling-stroke"  transform=" translate(230.68, 12.21)" d="M -235.83912 -5.4392622 L -235.83912 -18.985375 L -225.52037 -18.985375 L -225.52037 -16.360215 L -232.08397000000002 -16.360215 L -232.08397000000002 -13.564175 L -226.04541000000003 -13.564175 L -226.04541000000003 -10.937632 L -232.08397000000002 -10.937632 L -232.08397000000002 -8.0671815 L -225.52037 -8.0671815 L -225.52037 -5.4392622 z M -235.83912 -5.4392622" stroke-linecap="round" />
</g>
<g transform="matrix(4.96 0 0 4.96 64.76 55.98)"  >
<path style="stroke: none; stroke-width: 0.35; stroke-dasharray: none; stroke-linecap: butt; stroke-dashoffset: 0; stroke-linejoin: miter; stroke-miterlimit: 4; fill: rgb(10,112,163); fill-rule: nonzero; opacity: 1;" vector-effect="non-scaling-stroke"  transform=" translate(277.79, 12.41)" d="M -278.43429 -18.833794 C -277.83484 -19.299570000000003 -277.08243 -18.912334 -276.57944999999995 -18.483771 C -276.05303999999995 -18.081382 -275.50319999999994 -17.625254 -275.02225999999996 -17.158099 L -274.93406 -17.108489 C -273.60012 -15.869632 -272.35988 -14.494352999999998 -271.34150999999997 -13.039143999999999 C -271.17753 -12.785585 -271.03144999999995 -12.498952999999998 -271.12377999999995 -12.162709999999999 C -271.46277999999995 -11.313838999999998 -272.15317999999996 -10.637222 -272.75537999999995 -9.897217199999998 C -274.06037999999995 -8.4916165 -275.43703999999997 -7.132871699999998 -276.9790699999999 -6.048355199999998 C -277.2904999999999 -5.827869099999998 -277.7108099999999 -5.625296999999998 -278.08424999999994 -5.798930699999998 C -279.21837999999997 -6.392863899999998 -280.17473999999993 -7.365757899999998 -281.16829999999993 -8.251836999999998 C -282.3189699999999 -9.319818799999998 -283.47513999999995 -10.562807 -284.34743999999995 -11.863674999999999 C -284.47696999999994 -12.045576999999998 -284.51417999999995 -12.271574 -284.5100499999999 -12.511353 C -284.3970499999999 -12.960595 -284.09111999999993 -13.329907 -283.7989799999999 -13.708867999999999 C -282.7682099999999 -15.022139999999998 -281.5059199999999 -16.269266 -280.2298599999999 -17.407525 C -280.1995599999999 -17.436455 -280.14575999999994 -17.498475 -280.09894999999995 -17.528792 C -279.5518599999999 -18.002837 -279.00753999999995 -18.421761 -278.43427999999994 -18.833795 M -276.68002999999993 -20.200808 L -277.35664999999995 -21.161299 C -277.4407499999999 -21.210909 -277.54405999999994 -21.29497 -277.63500999999997 -21.319774 C -277.83482999999995 -21.406594 -278.05118 -21.301854 -278.21378999999996 -21.177837 L -279.43886999999995 -19.582068 C -281.40532999999994 -17.147076 -283.73283 -14.87331 -286.27255999999994 -13.130094 C -286.47236999999996 -12.972998 -286.77140999999995 -12.820034 -286.83341999999993 -12.560965 C -286.89951999999994 -12.329454 -286.77831999999995 -12.136527 -286.6349799999999 -11.993210999999999 C -284.60099999999994 -10.591747999999999 -282.6565799999999 -8.929833499999999 -280.9271499999999 -7.033652899999999 C -280.61983999999995 -6.709813499999999 -280.3704199999999 -6.390108699999999 -280.0700099999999 -6.086938499999999 C -279.5642699999999 -5.413079999999999 -278.9689499999999 -4.735083499999998 -278.5045599999999 -4.011613799999999 C -278.35847999999993 -3.858652899999999 -278.3336799999999 -3.609228499999999 -278.10491999999994 -3.5348134999999994 C -277.92715999999996 -3.4728024999999993 -277.7066699999999 -3.4300807999999994 -277.53578999999996 -3.5348134999999994 L -277.36629999999997 -3.7043125999999993 C -275.26203 -6.685009699999999 -272.59414999999996 -9.361157299999999 -269.61344999999994 -11.521920999999999 C -269.3144199999999 -11.789262999999998 -268.74528999999995 -11.888482 -268.7370199999999 -12.383195999999998 C -268.7577199999999 -12.610571999999998 -268.8899799999999 -12.836571999999999 -269.0870399999999 -12.960594999999998 L -269.1352399999999 -12.968894999999998 C -270.6689899999999 -14.012068999999999 -272.0993899999999 -15.193045999999999 -273.4457399999999 -16.531121 L -274.93401999999986 -18.085548 C -275.5375999999999 -18.753897 -276.12188999999984 -19.495283999999998 -276.67998999999986 -20.200839 M -278.21374999999983 -18.467264999999998 C -277.60189999999983 -18.883432999999997 -277.05343999999985 -18.301899999999996 -276.57939999999985 -17.968415999999998 C -274.74660999999986 -16.493913999999997 -273.01716999999985 -14.805818999999998 -271.70113999999984 -12.898613999999998 C -271.53439999999983 -12.653324999999999 -271.45997999999986 -12.271605 -271.6074399999998 -11.993241999999999 C -271.95057999999983 -11.422733 -272.41083999999984 -10.903215 -272.84767999999985 -10.374047999999998 L -272.84767999999985 -10.346497999999999 C -273.93770999999987 -9.186191199999998 -275.08698999999984 -7.994186799999999 -276.33135999999985 -7.013023599999999 C -276.93769999999984 -6.642331799999998 -277.4944199999998 -5.836181699999998 -278.27576999999985 -6.336409999999999 C -280.05481999999984 -7.6372779999999985 -281.75806999999986 -9.253716399999998 -283.20087999999987 -10.987288 C -283.4461699999999 -11.369004 -283.82788999999985 -11.680439 -283.9987599999999 -12.113146 C -284.2357899999999 -12.69881 -283.7121299999999 -13.119113 -283.4130999999999 -13.560085 C -281.9413499999999 -15.374961 -280.11269999999985 -17.155385000000003 -278.21375999999987 -18.467277000000003 M -277.82790999999986 -17.271142000000005 L -277.9932699999999 -16.739220000000003 L -278.8242299999999 -14.356591000000003 C -278.6161499999999 -14.335921000000003 -278.3584499999999 -14.356591000000003 -278.15449999999987 -14.335921000000003 L -278.15449999999987 -14.316621000000003 L -278.27576999999985 -11.622566000000003 L -278.2550699999999 -11.593636000000002 C -277.98910999999987 -11.568836000000001 -277.65699999999987 -11.555046000000003 -277.3855299999999 -11.601936000000002 L -277.3855299999999 -11.644656000000001 L -277.4943899999999 -14.256037000000001 L -277.4778899999999 -14.344237000000001 L -276.7461499999999 -14.356657000000002 C -277.1113299999999 -15.321285000000001 -277.4654899999999 -16.295555 -277.8058599999999 -17.271208 z M -280.6570199999999 -13.539413000000005 C -281.12279999999987 -13.305147000000005 -281.8090599999999 -12.952369000000004 -281.7332699999999 -12.312959000000005 C -281.6340699999999 -11.964316000000006 -281.2550899999999 -11.738320000000005 -280.95605999999987 -11.593624000000005 C -279.30240999999984 -10.866020000000006 -277.1071899999999 -10.841216000000006 -275.3612199999999 -11.384163000000006 C -274.9298899999999 -11.550907000000006 -274.35111999999987 -11.792062000000007 -274.2725699999999 -12.319849000000007 C -274.27656999999994 -12.756687000000007 -274.7383499999999 -13.030919000000006 -275.07044999999994 -13.197659000000007 L -275.07044999999994 -13.218329000000008 C -274.95469999999995 -13.265189000000008 -274.82240999999993 -13.305149000000007 -274.70251999999994 -13.318927000000008 L -274.70251999999994 -13.329937000000008 C -275.28680999999995 -13.434669000000008 -275.8517999999999 -13.587630000000008 -276.41817999999995 -13.737836000000009 C -276.3093099999999 -13.488411000000008 -276.23076 -13.22658700000001 -276.13980999999995 -12.968893000000008 C -275.96894 -13.022633000000008 -275.79391999999996 -13.063973000000008 -275.61064999999996 -13.088781000000008 C -275.31161 -12.973028000000008 -274.88442 -12.806284000000009 -274.84169999999995 -12.432837000000008 C -274.80859999999996 -12.084190000000008 -275.1917199999999 -11.913315000000008 -275.43287999999995 -11.772754000000008 C -276.71307999999993 -11.306978000000008 -278.1544999999999 -11.261502000000007 -279.48981999999995 -11.614280000000008 C -279.85913999999997 -11.731412000000008 -280.3910599999999 -11.880242000000008 -280.43654 -12.350153000000008 C -280.17471 -12.968893000000008 -279.49809 -13.097050000000008 -278.93172 -13.247256000000007 C -279.22247999999996 -13.434669000000007 -279.51876 -13.601413000000008 -279.79988 -13.809496000000006 C -280.10443 -13.791576000000006 -280.38279 -13.659290000000006 -280.65702 -13.539398000000006 M -278.29231 -10.853602000000006 C -278.34191 -9.897246600000006 -278.35431 -9.012543400000006 -278.4246 -8.052053000000006 C -278.04702 -8.018998000000007 -277.61845 -7.985907000000006 -277.21605999999997 -8.043793000000006 L -277.33594999999997 -10.717185000000006 L -277.35664999999995 -10.843967000000006 C -277.6653299999999 -10.832957000000006 -277.95608999999996 -10.820547000000007 -278.29233999999997 -10.853567000000007" stroke-linecap="round" />
</g>
<g transform="matrix(4.96 0 0 4.96 79.81 93.98)"  >
<path style="stroke: none; stroke-width: 0.35; stroke-dasharray: none; stroke-linecap: butt; stroke-dashoffset: 0; stroke-linejoin: miter; stroke-miterlimit: 4; fill: rgb(10,112,163); fill-rule: nonzero; opacity: 1;" vector-effect="non-scaling-stroke"  transform=" translate(274.76, 4.75)" d="M -274.76181 -5.3827613 C -275.09668000000005 -5.3827613 -275.39433 -5.1512509 -275.39433 -4.7543759 C -275.39433 -4.3561215 -275.09668000000005 -4.1232353 -274.76181 -4.1232353 C -274.42971 -4.1232353 -274.13205000000005 -4.3561215 -274.13205000000005 -4.7543759 C -274.13205000000005 -5.1512509 -274.42971000000006 -5.3827613 -274.76181 -5.3827613 M -274.76181 -4.2693064000000005 L -274.76181 -4.2707164 C -275.01124000000004 -4.2693064000000005 -275.21243000000004 -4.463640000000001 -275.21243000000004 -4.7544065 C -275.21243000000004 -5.0424178 -275.01124000000004 -5.2353414 -274.76181 -5.2353414 C -274.5179 -5.2353414 -274.31120000000004 -5.0424178 -274.31120000000004 -4.7544065 C -274.31120000000004 -4.46364 -274.51790000000005 -4.2693370999999996 -274.76181 -4.2693370999999996 M -274.48069000000004 -4.8880776 C -274.48069000000004 -5.0424178 -274.58267000000006 -5.0920254 -274.75906000000003 -5.0920254 L -275.01124000000004 -5.0920254 L -275.01124000000004 -4.4154082 L -274.86654000000004 -4.4154082 L -274.86654000000004 -4.6992532 L -274.79764000000006 -4.6992532 L -274.6419200000001 -4.415376500000001 L -274.46967000000006 -4.415376500000001 L -274.64468000000005 -4.7116569 C -274.55238 -4.7199169 -274.48069000000004 -4.7640199 -274.48069000000004 -4.8880458 M -274.73839000000004 -4.8150098 L -274.86654000000004 -4.8150098 L -274.86654000000004 -4.978995 L -274.76457000000005 -4.978995 C -274.70947000000007 -4.978995 -274.63503000000003 -4.973495000000001 -274.63503000000003 -4.903204000000001 C -274.63503000000003 -4.82741 -274.67223 -4.815009000000001 -274.73839000000004 -4.815009000000001" stroke-linecap="round" />
</g>
<g transform="matrix(0.36 0 0 0.36 218.32 124.12)" style="" id="c2e2051d-d122-4bca-bd39-5f7daed8c84e"  >
		<text xml:space="preserve" font-family="Alegreya" font-size="80" font-style="normal" font-weight="700" style="stroke: none; stroke-width: 1; stroke-dasharray: none; stroke-linecap: butt; stroke-dashoffset: 0; stroke-linejoin: miter; stroke-miterlimit: 4; fill: rgb(10,112,163); fill-rule: nonzero; opacity: 1; white-space: pre;" ><tspan x="-208.62" y="-20.07" >PDEU Student</tspan><tspan x="-40.94" y="70.33" style="white-space: pre; ">Chapter   </tspan></text>
</g>
</svg>